<svg width="64" height="64" viewBox="100 100 824 824" xmlns="http://www.w3.org/2000/svg">
  <defs>
    <linearGradient id="gold" x1="0%" y1="100%" x2="100%" y2="0%">
      <stop offset="0%" stop-color="#B48E36" />
      <stop offset="50%" stop-color="#F2C94C" />
      <stop offset="100%" stop-color="#F6DCA0" />
    </linearGradient>
    <linearGradient id="silver" x1="0%" y1="0%" x2="100%" y2="100%">
      <stop offset="0%" stop-color="#FFFFFF" />
      <stop offset="50%" stop-color="#E2E8F0" />
      <stop offset="100%" stop-color="#94A3B8" />
    </linearGradient>
  </defs>

  <g transform="translate(0, 0)">
    <!-- Dış Çember -->
    <path d="M 880,350 A 420 420 0 1 1 720,150" stroke="url(#gold)" stroke-width="32" fill="none" stroke-linecap="round" />

    <!-- Çubuklar -->
    <rect x="360" y="760" width="50" height="80" fill="url(#gold)" rx="8" />
    <rect x="440" y="700" width="50" height="140" fill="url(#gold)" rx="8" />
    <rect x="520" y="620" width="50" height="220" fill="url(#gold)" rx="8" />
    <rect x="600" y="520" width="50" height="320" fill="url(#gold)" rx="8" />
    <rect x="680" y="400" width="50" height="440" fill="url(#gold)" rx="8" />

    <!-- KF -->
    <text x="440" y="620" font-family="'Arial Black', 'Segoe UI Black', Impact, sans-serif" font-size="380" font-weight="900" fill="url(#silver)" letter-spacing="-25" text-anchor="middle">KF</text>

    <!-- Ok -->
    <path d="M 150,650 Q 500,950 840,240" stroke="url(#gold)" stroke-width="56" fill="none" stroke-linecap="round" />
    <polygon points="960,100 750,190 890,340" fill="url(#gold)" stroke="url(#gold)" stroke-width="10" stroke-linejoin="round" />
  </g>
</svg>
